<mxfile host="Electron" modified="2023-04-17T14:51:19.881Z" agent="Mozilla/5.0 (Windows NT 10.0; Win64; x64) AppleWebKit/537.36 (KHTML, like Gecko) draw.io/21.1.2 Chrome/106.0.5249.199 Electron/21.4.3 Safari/537.36" etag="GKp1OIIQxLr_eExs_HjP" version="21.1.2" type="device">
  <diagram id="Epos6ljTCpA-LMEy5TUw" name="Page-1">
    <mxGraphModel dx="1112" dy="868" grid="1" gridSize="10" guides="1" tooltips="1" connect="1" arrows="1" fold="1" page="1" pageScale="1" pageWidth="827" pageHeight="1169" math="0" shadow="0">
      <root>
        <mxCell id="0" />
        <mxCell id="1" parent="0" />
        <mxCell id="Rp1BgPSZoUE1h_AgtUlV-14" value="" style="rounded=0;whiteSpace=wrap;html=1;" parent="1" vertex="1">
          <mxGeometry x="840" y="320" width="235.5" height="640" as="geometry" />
        </mxCell>
        <mxCell id="Rp1BgPSZoUE1h_AgtUlV-13" value="" style="rounded=0;whiteSpace=wrap;html=1;" parent="1" vertex="1">
          <mxGeometry x="474" y="320" width="235.5" height="640" as="geometry" />
        </mxCell>
        <mxCell id="Rp1BgPSZoUE1h_AgtUlV-12" value="" style="rounded=0;whiteSpace=wrap;html=1;" parent="1" vertex="1">
          <mxGeometry x="84.5" y="320" width="235.5" height="640" as="geometry" />
        </mxCell>
        <mxCell id="Rp1BgPSZoUE1h_AgtUlV-10" style="edgeStyle=orthogonalEdgeStyle;rounded=0;orthogonalLoop=1;jettySize=auto;html=1;endArrow=none;endFill=0;" parent="1" source="Rp1BgPSZoUE1h_AgtUlV-1" target="Rp1BgPSZoUE1h_AgtUlV-2" edge="1">
          <mxGeometry relative="1" as="geometry" />
        </mxCell>
        <mxCell id="Rp1BgPSZoUE1h_AgtUlV-1" value="Home Router" style="sketch=0;aspect=fixed;pointerEvents=1;shadow=0;dashed=0;html=1;strokeColor=none;labelPosition=center;verticalLabelPosition=bottom;verticalAlign=top;align=center;fillColor=#00188D;shape=mxgraph.mscae.enterprise.router" parent="1" vertex="1">
          <mxGeometry x="760" y="68.5" width="50" height="39" as="geometry" />
        </mxCell>
        <mxCell id="Rp1BgPSZoUE1h_AgtUlV-11" style="edgeStyle=orthogonalEdgeStyle;rounded=0;orthogonalLoop=1;jettySize=auto;html=1;entryX=0.518;entryY=0.168;entryDx=0;entryDy=0;entryPerimeter=0;endArrow=none;endFill=0;" parent="1" source="Rp1BgPSZoUE1h_AgtUlV-2" target="Rp1BgPSZoUE1h_AgtUlV-3" edge="1">
          <mxGeometry relative="1" as="geometry" />
        </mxCell>
        <mxCell id="Rp1BgPSZoUE1h_AgtUlV-2" value="Room Switch" style="sketch=0;pointerEvents=1;shadow=0;dashed=0;html=1;strokeColor=none;fillColor=#505050;labelPosition=center;verticalLabelPosition=bottom;verticalAlign=top;outlineConnect=0;align=center;shape=mxgraph.office.devices.switch;" parent="1" vertex="1">
          <mxGeometry x="564.5" y="79" width="55" height="18" as="geometry" />
        </mxCell>
        <mxCell id="Rp1BgPSZoUE1h_AgtUlV-17" style="edgeStyle=orthogonalEdgeStyle;rounded=0;orthogonalLoop=1;jettySize=auto;html=1;entryX=0.5;entryY=0;entryDx=0;entryDy=0;" parent="1" source="Rp1BgPSZoUE1h_AgtUlV-3" target="Rp1BgPSZoUE1h_AgtUlV-12" edge="1">
          <mxGeometry relative="1" as="geometry">
            <Array as="points">
              <mxPoint x="591" y="260" />
              <mxPoint x="202" y="260" />
            </Array>
          </mxGeometry>
        </mxCell>
        <mxCell id="Rp1BgPSZoUE1h_AgtUlV-18" style="edgeStyle=orthogonalEdgeStyle;rounded=0;orthogonalLoop=1;jettySize=auto;html=1;entryX=0.5;entryY=0;entryDx=0;entryDy=0;" parent="1" source="Rp1BgPSZoUE1h_AgtUlV-3" target="Rp1BgPSZoUE1h_AgtUlV-14" edge="1">
          <mxGeometry relative="1" as="geometry">
            <Array as="points">
              <mxPoint x="591" y="260" />
              <mxPoint x="958" y="260" />
            </Array>
          </mxGeometry>
        </mxCell>
        <mxCell id="Rp1BgPSZoUE1h_AgtUlV-19" style="edgeStyle=orthogonalEdgeStyle;rounded=0;orthogonalLoop=1;jettySize=auto;html=1;entryX=0.5;entryY=0;entryDx=0;entryDy=0;" parent="1" source="Rp1BgPSZoUE1h_AgtUlV-3" target="Rp1BgPSZoUE1h_AgtUlV-13" edge="1">
          <mxGeometry relative="1" as="geometry" />
        </mxCell>
        <mxCell id="Rp1BgPSZoUE1h_AgtUlV-3" value="Firewall" style="sketch=0;points=[[0.015,0.015,0],[0.985,0.015,0],[0.985,0.985,0],[0.015,0.985,0],[0.25,0,0],[0.5,0,0],[0.75,0,0],[1,0.25,0],[1,0.5,0],[1,0.75,0],[0.75,1,0],[0.5,1,0],[0.25,1,0],[0,0.75,0],[0,0.5,0],[0,0.25,0]];verticalLabelPosition=bottom;html=1;verticalAlign=top;aspect=fixed;align=center;pointerEvents=1;shape=mxgraph.cisco19.rect;prIcon=firewall;fillColor=#FAFAFA;strokeColor=#005073;" parent="1" vertex="1">
          <mxGeometry x="559" y="160" width="64" height="50" as="geometry" />
        </mxCell>
        <mxCell id="Rp1BgPSZoUE1h_AgtUlV-4" value="Nidavellir&lt;br&gt;new pc" style="sketch=0;outlineConnect=0;fontColor=#232F3E;gradientColor=none;fillColor=#232F3D;strokeColor=none;dashed=0;verticalLabelPosition=bottom;verticalAlign=top;align=center;html=1;fontSize=12;fontStyle=0;aspect=fixed;pointerEvents=1;shape=mxgraph.aws4.traditional_server;" parent="1" vertex="1">
          <mxGeometry x="511.5" y="350" width="45" height="78" as="geometry" />
        </mxCell>
        <mxCell id="Rp1BgPSZoUE1h_AgtUlV-5" value="Jotunheim&lt;br&gt;old pc" style="sketch=0;outlineConnect=0;fontColor=#232F3E;gradientColor=none;fillColor=#232F3D;strokeColor=none;dashed=0;verticalLabelPosition=bottom;verticalAlign=top;align=center;html=1;fontSize=12;fontStyle=0;aspect=fixed;pointerEvents=1;shape=mxgraph.aws4.traditional_server;" parent="1" vertex="1">
          <mxGeometry x="122" y="350" width="45" height="78" as="geometry" />
        </mxCell>
        <mxCell id="Rp1BgPSZoUE1h_AgtUlV-6" value="Niflheim&lt;br&gt;r pi" style="sketch=0;outlineConnect=0;fontColor=#232F3E;gradientColor=none;fillColor=#232F3D;strokeColor=none;dashed=0;verticalLabelPosition=bottom;verticalAlign=top;align=center;html=1;fontSize=12;fontStyle=0;aspect=fixed;pointerEvents=1;shape=mxgraph.aws4.traditional_server;" parent="1" vertex="1">
          <mxGeometry x="872" y="350" width="45" height="78" as="geometry" />
        </mxCell>
        <mxCell id="Rp1BgPSZoUE1h_AgtUlV-7" value="- Bookstack&lt;br style=&quot;border-color: var(--border-color);&quot;&gt;- Monitoring&lt;br style=&quot;border-color: var(--border-color);&quot;&gt; - Prometheus&lt;br style=&quot;border-color: var(--border-color);&quot;&gt;&lt;span style=&quot;border-color: var(--border-color);&quot;&gt; &lt;/span&gt;- Grafana&lt;br style=&quot;border-color: var(--border-color);&quot;&gt;- Web Dashboard frontend" style="text;html=1;align=left;verticalAlign=middle;resizable=0;points=[];autosize=1;strokeColor=none;fillColor=none;" parent="1" vertex="1">
          <mxGeometry x="932" y="350" width="160" height="90" as="geometry" />
        </mxCell>
        <mxCell id="Rp1BgPSZoUE1h_AgtUlV-8" value="- Proxmox&lt;br&gt;- MySQL&lt;br&gt;- MongoDB&lt;br&gt;- Pulsar&lt;br&gt;&lt;span style=&quot;white-space: pre;&quot;&gt; &lt;/span&gt;- Broker&lt;br&gt;&lt;span style=&quot;white-space: pre;&quot;&gt; &lt;/span&gt;- Bookies&lt;br&gt;- Hadoop&lt;br&gt;- Cloud?&lt;br&gt;- Plex?" style="text;html=1;align=left;verticalAlign=middle;resizable=0;points=[];autosize=1;strokeColor=none;fillColor=none;" parent="1" vertex="1">
          <mxGeometry x="182" y="350" width="100" height="140" as="geometry" />
        </mxCell>
        <mxCell id="Rp1BgPSZoUE1h_AgtUlV-9" value="- Proxmox&lt;br&gt;- Pulsar&lt;br&gt;&lt;span style=&quot;white-space: pre;&quot;&gt; &lt;/span&gt;- Zookeeper&lt;br&gt;- Spark&lt;br&gt;- Druid?&lt;br&gt;- Superset&lt;br&gt;- Batches&lt;br&gt;- Crawlers&lt;br&gt;- Host Servers" style="text;html=1;align=left;verticalAlign=middle;resizable=0;points=[];autosize=1;strokeColor=none;fillColor=none;" parent="1" vertex="1">
          <mxGeometry x="582" y="350" width="110" height="140" as="geometry" />
        </mxCell>
      </root>
    </mxGraphModel>
  </diagram>
</mxfile>
